<svg id="SvgjsSvg1001" width="288" height="288" xmlns="http://www.w3.org/2000/svg" version="1.1" xmlns:xlink="http://www.w3.org/1999/xlink" xmlns:svgjs="http://svgjs.com/svgjs"><defs id="SvgjsDefs1002"></defs><g id="SvgjsG1008" transform="matrix(0.9167,0,0,0.9167,11.995200000000011,11.995178405066952)"><svg xmlns="http://www.w3.org/2000/svg" data-name="Layer 1" viewBox="0 0 64 64" width="288" height="288"><path d="M57,16V14a5,5,0,0,0-5-5H47.1a17.069,17.069,0,0,0-1.71-2.62c-.3-.38-.61-.73-.93-1.07a.035.035,0,0,1-.02-.01c0-.01,0-.01-.01-.01a16.956,16.956,0,0,0-24.61,0h-.01c0,.01,0,.01-.01.01-.33.35-.64.7-.94,1.07A16.311,16.311,0,0,0,17.13,9H12a5,5,0,0,0-5,5v2a4,4,0,0,0-4,4V51a4,4,0,0,0,4,4H25.42a4.407,4.407,0,0,1,0,4H22.5a2.5,2.5,0,0,0,0,5h19a2.5,2.5,0,0,0,0-5H38.58a4.407,4.407,0,0,1,0-4H57a4,4,0,0,0,4-4V20A4,4,0,0,0,57,16Zm-5-5a3.009,3.009,0,0,1,3,3v6a3.009,3.009,0,0,1-3,3H43V11ZM27.73,27c-.04-.11-.09-.21-.13-.33-.18-.53-.34-1.09-.5-1.67H37.14c-.16.58-.32,1.14-.51,1.68-.03.11-.08.21-.12.32Zm7.88,2c-1.04,1.92-2.28,3-3.49,3s-2.45-1.09-3.49-3ZM26.4,29a13.86,13.86,0,0,0,1.35,2.34A15.1,15.1,0,0,1,23.16,29Zm-5.43-2c-.19-.2-.37-.41-.55-.63-.36-.45-.69-.91-.99-1.37h5.62c.16.69.35,1.36.56,2Zm16.87,2h3.25a14.551,14.551,0,0,1-4.62,2.36A14.107,14.107,0,0,0,37.84,29Zm.79-2c.21-.64.4-1.31.56-2h5.62a15.794,15.794,0,0,1-.98,1.38c-.17.21-.36.41-.55.62Zm5.2-19.37A14.287,14.287,0,0,1,44.81,9H39.19c-.16-.69-.35-1.36-.56-2h4.65C43.47,7.2,43.65,7.41,43.83,7.63ZM41.09,5H37.84a13.451,13.451,0,0,0-1.37-2.36A14.551,14.551,0,0,1,41.09,5ZM37.14,9H27.1c.16-.58.32-1.14.51-1.68.04-.11.08-.21.12-.32h8.78c.04.11.09.21.13.33C36.82,7.86,36.99,8.43,37.14,9ZM32.12,2c1.21,0,2.45,1.09,3.49,3H28.63C29.67,3.08,30.91,2,32.12,2Zm-4.36.66A13.871,13.871,0,0,0,26.4,5H23.16A15.038,15.038,0,0,1,27.76,2.66ZM20.42,7.62c.17-.21.36-.41.55-.62h4.64c-.21.64-.4,1.31-.56,2H19.43C19.73,8.53,20.06,8.08,20.42,7.62ZM9,14a3.009,3.009,0,0,1,3-3H41V23H12a3.009,3.009,0,0,1-3-3ZM41.5,61a.5.5,0,0,1,0,1h-19a.5.5,0,0,1,0-1H34a1,1,0,0,0,0-2H27.58a6.363,6.363,0,0,0,0-4h8.84a6.372,6.372,0,0,0,.75,5.55A1.034,1.034,0,0,0,38,61ZM59,51a2.006,2.006,0,0,1-2,2H7a2.006,2.006,0,0,1-2-2V47H52a1,1,0,0,0,0-2H5V20a2.006,2.006,0,0,1,2-2v2a5,5,0,0,0,5,5h5.13a15.809,15.809,0,0,0,1.73,2.62c.3.38.61.73.93,1.07.01,0,.01.01.02.01a.01.01,0,0,0,.01.01A17,17,0,0,0,32.12,34a16.778,16.778,0,0,0,12.31-5.29h.01c0-.01,0-.01.01-.01.33-.35.64-.7.94-1.07A17.658,17.658,0,0,0,47.1,25H52a5,5,0,0,0,5-5V18a2.006,2.006,0,0,1,2,2Z" fill="#000000" class="color000 svgShape"></path><path d="M52.71 19.29s-2-2-2.01-2A2.947 2.947 0 0 0 51 16a3 3 0 1 0-3 3 3.086 3.086 0 0 0 1.29-.29l2 2a1.027 1.027 0 0 0 1.42 0A1.008 1.008 0 0 0 52.71 19.29zM48 17a1 1 0 1 1 1-1A1 1 0 0 1 48 17zM10 37H22a1 1 0 0 0 0-2H10a1 1 0 0 0 0 2zM27 39H10a1 1 0 0 0 0 2H27a1 1 0 0 0 0-2z" fill="#000000" class="color000 svgShape"></path><circle cx="56" cy="46" r="1.005" fill="#000000" class="color000 svgShape"></circle></svg></g></svg>